<svg xmlns="http://www.w3.org/2000/svg" viewBox="0 0 1366 760.95"><defs><style>.cls-1{fill:#1e2d2f;}</style></defs><title>background4</title><g id="Layer_2" data-name="Layer 2"><g id="Layer_1-2" data-name="Layer 1"><path class="cls-1" d="M243.46,755.4c4.95,2.49,10,5.18,15.54,5.5,7,.41,13.59-3,19.89-6.14,76-37.51,169.39-37.43,245.29.2,5.9,2.92,12,6.14,18.6,6,6-.14,11.54-3.06,16.91-5.75,75.11-37.49,167.6-38.09,243.19-1.57,6.1,3,12.32,6.19,19.09,6.62,8.93.57,17.32-3.78,25.4-7.63,73.51-35,162.88-34.75,236.19.67,6.89,3.33,14,7.05,21.69,6.8,5-.16,9.85-2,14.54-3.9,42.28-16.75,80.33-29.86,126.54-29.86A280.47,280.47,0,0,1,1366,753V295s-75-135-312-135S683,0,683,0H0V755.11C73.59,719.44,162.19,714.58,243.46,755.4Z"/></g></g></svg>