<svg xmlns="http://www.w3.org/2000/svg" viewBox="0 0 1366 752.76"><defs><style>.cls-1{fill:#1e2d2f;}</style></defs><title>background2</title><g id="Layer_2" data-name="Layer 2"><g id="Layer_1-2" data-name="Layer 1"><path class="cls-1" d="M238.13,739.85c4.69,2.37,9.5,4.94,14.74,5.2,6.41.31,12.4-2.84,18.14-5.71C345,702.41,436.1,702,510.41,738.18c5.69,2.77,11.5,5.8,17.82,6.19,8.19.5,15.89-3.48,23.29-7,74.2-35.56,164.87-34.64,238.33,2.43,5,2.51,10.1,5.24,15.67,5.35,6,.11,11.61-2.84,17-5.55,73.32-36.8,163.65-37.72,237.7-2.4,5.41,2.58,11,5.4,16.94,5.69,5,.25,9.82-1.27,14.56-2.77C1134.88,726.43,1174.48,711,1220,711a274.63,274.63,0,0,1,146,41.76V384s-48-110-322-110S683,0,683,0H0V738.62C72.13,704.1,158.77,699.71,238.13,739.85Z"/></g></g></svg>