<svg xmlns="http://www.w3.org/2000/svg" viewBox="0 0 1366 759.91"><defs><style>.cls-1{fill:#1e2d2f;}</style></defs><title>background3</title><g id="Layer_2" data-name="Layer 2"><g id="Layer_1-2" data-name="Layer 1"><path class="cls-1" d="M267.15,739.91c4.53,2.3,9.19,4.78,14.26,5,6.2.3,12-2.75,17.55-5.52,71.54-35.73,159.7-36.16,231.59-1.13,5.5,2.68,11.12,5.62,17.24,6,7.92.49,15.37-3.37,22.52-6.8,71.79-34.4,159.5-33.51,230.56,2.35,4.82,2.43,9.78,5.07,15.17,5.17,5.82.12,11.23-2.74,16.44-5.36,70.93-35.6,158.31-36.49,230-2.33,5.24,2.5,10.59,5.23,16.39,5.51,4.8.24,9.5-1.23,14.08-2.68C1134.66,726.93,1173,712,1217,712a265.78,265.78,0,0,1,149,45.41V304s-79-151-308-151S683,0,683,0H0V759.91C75.64,708.32,176.32,694,267.15,739.91Z"/></g></g></svg>