<svg xmlns="http://www.w3.org/2000/svg" viewBox="0 0 1921.98 1075.99"><defs><style>.cls-1{fill:#1e2d2f;}</style></defs><title>background</title><g id="Layer_2" data-name="Layer 2"><g id="Layer_1-2" data-name="Layer 1"><path class="cls-1" d="M183.78,1026.48c36.09,0,76.75,3.1,111.36,14.19,29.44,9.44,55.19,33.75,87.93,30.65,13.66-1.3,26.25-7.59,38.81-13.1,97.69-42.83,213.8-41.41,310.42,3.8,11.56,5.41,23.51,11.56,36.27,11,10.34-.47,19.88-5.34,29.25-9.74,101.07-47.45,223.09-47.8,324.43-.94,11.27,5.21,22.9,11.11,35.31,10.68,10.87-.37,20.89-5.57,30.72-10.23,95.72-45.38,210.94-47.57,308.31-5.86,17.29,7.4,35.12,16.31,53.84,14.54,12.87-1.22,24.65-7.41,36.38-12.85a347.42,347.42,0,0,1,151.55-32.46c63.81.83,126.18,18.86,181.64,49.86V430s57-239-441-239S960,0,960,0H0V1072.6A386.94,386.94,0,0,1,183.78,1026.48Z"/></g></g></svg>