<svg xmlns="http://www.w3.org/2000/svg" width="244" height="104.941" viewBox="0 0 244 104.941">
  <g id="pizzalogo" transform="translate(0 3.616)">
    <path id="Path_120" data-name="Path 120" d="M0,0H96.933V96.933H0Z" fill="none"/>
    <path id="Path_121" data-name="Path 121" d="M39.319,2A48.717,48.717,0,0,0,3.01,18.155L39.319,82.777,75.629,18.155A48.8,48.8,0,0,0,39.319,2ZM19.125,22.194A8.078,8.078,0,1,1,27.2,30.272,8.1,8.1,0,0,1,19.125,22.194ZM39.319,54.505A8.078,8.078,0,1,1,47.4,46.427,8.1,8.1,0,0,1,39.319,54.505Z" transform="matrix(0.891, -0.454, 0.454, 0.891, 4.189, 28.937)" fill="#c57b57"/>
    <text id="Mike_s_Pizza" data-name="Mike&apos;s Pizza" transform="translate(92 60.466)" fill="#366961" font-size="30" font-family="Neuton-ExtraBold, Neuton" font-weight="800"><tspan x="0" y="0">Mike&apos;s Pizza</tspan></text>
  </g>
</svg>
