<svg xmlns="http://www.w3.org/2000/svg" width="294" height="294" viewBox="0 0 294 294">
  <g id="quality" transform="translate(-283 -3056)">
    <circle id="Ellipse_3" data-name="Ellipse 3" cx="147" cy="147" r="147" transform="translate(283 3056)" fill="#1e2d2f"/>
    <g id="quality-2" data-name="quality" transform="translate(313.334 3126)" opacity="0.8">
      <g id="Group_5" data-name="Group 5" transform="translate(68.705 118.288)">
        <g id="Group_4" data-name="Group 4" transform="translate(0)">
          <path id="Path_142" data-name="Path 142" d="M137.542,393.656a19.246,19.246,0,0,1-21.8,3.264,19.862,19.862,0,0,1-6.708-5.2L98.943,414.029a1.94,1.94,0,0,0,2.288,2.668l7.344-2.044a9.355,9.355,0,0,1,10.944,4.948l3.317,6.864a1.939,1.939,0,0,0,3.514-.045L142.4,390.926A12.04,12.04,0,0,0,137.542,393.656Z" transform="translate(-98.758 -390.926)" fill="#f7dba7"/>
        </g>
      </g>
      <g id="Group_7" data-name="Group 7" transform="translate(120.224 118.288)">
        <g id="Group_6" data-name="Group 6" transform="translate(0)">
          <path id="Path_143" data-name="Path 143" d="M312.476,414.029l-10.088-22.314a19.855,19.855,0,0,1-6.708,5.2,19.246,19.246,0,0,1-21.8-3.264,12.038,12.038,0,0,0-4.855-2.73l16.047,35.494a1.939,1.939,0,0,0,3.514.045L291.9,419.6a9.355,9.355,0,0,1,10.944-4.948l7.344,2.044a1.94,1.94,0,0,0,2.288-2.668Z" transform="translate(-269.022 -390.926)" fill="#f7dba7"/>
        </g>
      </g>
      <g id="Group_9" data-name="Group 9" transform="translate(55.666)">
        <g id="Group_8" data-name="Group 8" transform="translate(0)">
          <path id="Path_144" data-name="Path 144" d="M171.6,62.874a19.694,19.694,0,0,1-5.919-25.932,12.17,12.17,0,0,0-14.116-17.7A19.7,19.7,0,0,1,127.6,7.7a12.17,12.17,0,0,0-22.639,0A19.694,19.694,0,0,1,81,19.242a12.17,12.17,0,0,0-14.116,17.7,19.694,19.694,0,0,1-5.919,25.932A12.17,12.17,0,0,0,66,84.946a19.694,19.694,0,0,1,16.584,20.8,12.17,12.17,0,0,0,20.4,9.823,19.693,19.693,0,0,1,26.6,0,12.17,12.17,0,0,0,20.4-9.823,19.7,19.7,0,0,1,16.584-20.8A12.17,12.17,0,0,0,171.6,62.874Zm-55.319,38.771A39.826,39.826,0,1,1,156.11,61.819,39.871,39.871,0,0,1,116.284,101.645Z" transform="translate(-55.666 0)" fill="#f7dba7"/>
        </g>
      </g>
      <g id="Group_11" data-name="Group 11" transform="translate(83.883 29.419)">
        <g id="Group_10" data-name="Group 10">
          <path id="Path_145" data-name="Path 145" d="M181.32,97.225a32.4,32.4,0,1,0,32.4,32.4A32.437,32.437,0,0,0,181.32,97.225Zm16.6,29.259L177.76,141.212a3.713,3.713,0,0,1-5.228-.864L166.5,131.76a3.713,3.713,0,1,1,6.077-4.268l3.858,5.493,17.111-12.5a3.713,3.713,0,1,1,4.38,6Z" transform="translate(-148.92 -97.225)" fill="#f7dba7"/>
        </g>
      </g>
    </g>
  </g>
</svg>
