<svg xmlns="http://www.w3.org/2000/svg" xmlns:xlink="http://www.w3.org/1999/xlink" viewBox="0 0 1920 1078"><defs><style>.cls-1{isolation:isolate;}.cls-2{fill:url(#radial-gradient);}.cls-3{mix-blend-mode:soft-light;}.cls-4{fill:none;}</style><radialGradient id="radial-gradient" cx="1205.71" cy="792.65" r="1672.51" gradientUnits="userSpaceOnUse"><stop offset="0" stop-color="#fff"/><stop offset="1" stop-color="#006837"/></radialGradient></defs><title>sunburst5</title><g class="cls-1"><g id="Layer_2" data-name="Layer 2"><g id="Layer_1-2" data-name="Layer 1"><rect class="cls-2" width="1920" height="1078"/><g class="cls-3"><path class="cls-4" d="M1304.62,710.36c-.81-.38-.94-.53-.62-.51-.25-.25,0-.25.84.16l.3.07L0,4.68V204.94L1305,710.6Z"/><path class="cls-4" d="M1305.24,709.33c-.71-.59-.8-.77-.47-.66-.17-.3,0-.24.76.36l.26.14L546.85,0H317L1305.5,709.66Z"/><path class="cls-4" d="M1311,708c.37-.7.52-.81.51-.55.26-.23.26,0-.15.76,0,.07,0,.17-.07.26L1738.43,0H1615.66l-305,708.38C1310.76,708.24,1310.87,708.1,1311,708Z"/><path class="cls-4" d="M1312.9,709.48c.8-.5,1-.53.79-.25.29-.05.18.1-.52.55a2.89,2.89,0,0,1-.25.24L1920,375.36V264.64l-607.52,445Z"/><path class="cls-4" d="M1312.07,708.58c.59-.62.77-.7.67-.42.3-.14.24,0-.35.69l-.16.26L1920,128.89V0h-39L1311.67,708.88Z"/><path class="cls-4" d="M1313.48,710.53c.86-.27,1.06-.25.8,0,.32,0,.17.14-.66.42l-.3.17L1920,555.58V470.37L1313,710.59Z"/><path class="cls-4" d="M1308.48,707.66c0-.84,0-1,.15-.77.12-.41.22-.25.29.79l.06.22L1304.09,0h-99.48l103.81,708.12C1308.44,708,1308.46,707.8,1308.48,707.66Z"/><path class="cls-4" d="M1307.28,708c-.3-.84-.29-1-.06-.78,0-.32.16-.18.46.65l.14.22L1101.51,0H990.58l316.75,708.42C1307.31,708.27,1307.29,708.13,1307.28,708Z"/><path class="cls-4" d="M1309.73,707.69c.19-.86.31-1,.37-.68.17-.23.21,0,.05.73a2.71,2.71,0,0,1,0,.29L1505.29,0H1402.53l-93,708.12C1309.61,708,1309.68,707.82,1309.73,707.69Z"/><path class="cls-4" d="M1304.3,711.51c-.89-.17-1-.28-.72-.33-.31-.19-.11-.23.87,0h.35L0,384.88V552.45l1304.64,159.2Z"/><path class="cls-4" d="M1309.55,716.79c0,.74,0,.92-.14.71-.12.43-.23.28-.3-.8,0-.12-.08-.25-.12-.4l-1.94,361.7H1358l-48.36-361.51C1309.57,716.59,1309.56,716.7,1309.55,716.79Z"/><path class="cls-4" d="M1310.76,716.4c.28.8.26,1,0,.75,0,.3-.16.16-.45-.62l-.25-.41L1410.78,1078h56.72L1310.72,716.13C1310.74,716.22,1310.75,716.32,1310.76,716.4Z"/><path class="cls-4" d="M1304.18,712.68c-.86.05-1.06,0-.8-.14-.43-.11-.26-.21.85-.27l.33-.09L0,713.09V874.78l1304.57-162Z"/><path class="cls-4" d="M1312.82,715.06c.67.57.76.74.45.64.15.28,0,.22-.73-.34l-.42-.23L1693.66,1078h116.77L1312.61,714.81Z"/><path class="cls-4" d="M1311.88,715.86c.52.74.56.93.27.73,0,.28-.11.18-.6-.48l-.37-.35L1530.63,1078H1604L1311.77,715.6Z"/><path class="cls-4" d="M1308.3,716.62c-.18.86-.3,1-.36.7-.19.29-.24.09,0-.81v-.43L1203.37,1078h52.92l52.11-361.6A1.47,1.47,0,0,1,1308.3,716.62Z"/><path class="cls-4" d="M1313.8,711.68c.92,0,1.12,0,.83.15.38.1.21.19-.81.26l-.3.08,606.48-1.6V634.82l-606.64,76.81Z"/><path class="cls-4" d="M1305.17,714.86c-.83.52-1,.55-.82.26-.32.06-.21-.1.55-.58l.3-.29L635.36,1078H801.54l503.9-363.25Z"/><path class="cls-4" d="M1304.6,713.81c-.92.29-1.12.28-.84.06-.34,0-.19-.15.69-.44l.33-.18L0,1042.49V1078H370.84l934.08-364.22Z"/><path class="cls-4" d="M1307.09,716.33c-.41.76-.56.89-.54.58-.27.24-.27,0,.16-.79,0-.13.07-.26.11-.4L1083,1078h63.45l160.82-361.89Z"/><path class="cls-4" d="M1306,715.75c-.62.66-.81.74-.7.44-.31.15-.25,0,.38-.72.06-.11.14-.23.22-.36L919,1078h90.23l297-362.43Z"/><path class="cls-4" d="M1306.17,708.55c-.56-.79-.59-1-.28-.77-.07-.3.11-.2.61.51l.23.2L867,0H723.1l583.23,708.92Z"/><path class="cls-4" d="M1313.77,712.86c.89.17,1,.28.71.34.26.16.06.2-.8,0h-.45L1920,867.39V788.24l-606.56-75.51Z"/><path class="cls-4" d="M1313.45,714c.75.36.87.5.58.48.24.25,0,.25-.8-.14l-.43-.11,607.2,333.2V952.53L1313.17,713.81Z"/><path d="M1312.8,714.25l.43.11c.85.39,1,.39.8.14.29,0,.17-.12-.58-.48l-.28-.21L1920,952.53V867.39L1313.23,713.25h.45c.86.15,1.06.11.8,0,.34-.06.18-.17-.71-.34l-.33-.13L1920,788.24V710.57l-606.48,1.6.3-.08c1-.07,1.19-.16.81-.26.29-.13.09-.2-.83-.15l-.44,0L1920,634.82V555.58l-606.68,155.5.3-.17c.83-.28,1-.4.66-.42.26-.21.06-.23-.8,0l-.44.06,607-240.22v-95L1312.92,710a2.89,2.89,0,0,0,.25-.24c.7-.45.81-.6.52-.55.21-.28,0-.25-.79.25l-.42.16,607.52-445V128.89L1312.23,709.11l.16-.26c.59-.65.65-.83.35-.69.1-.28-.08-.2-.67.42l-.4.3L1881,0H1738.43L1311.26,708.46c0-.09,0-.19.07-.26.41-.8.41-1,.15-.76,0-.26-.14-.15-.51.55-.1.11-.21.25-.32.39L1615.66,0H1505.29L1310.16,708a2.71,2.71,0,0,0,0-.29c.16-.78.12-1-.05-.73-.06-.34-.18-.18-.37.68,0,.13-.12.28-.18.43L1402.53,0h-98.44L1309,707.9l-.06-.22c-.07-1-.17-1.2-.29-.79-.14-.25-.2-.07-.15.77,0,.14,0,.29-.06.46L1204.61,0h-103.1l206.31,708.09-.14-.22c-.3-.83-.44-1-.46-.65-.23-.25-.24-.06.06.78,0,.13,0,.27,0,.42L990.58,0H867l439.77,708.49-.23-.2c-.5-.71-.68-.81-.61-.51-.31-.22-.28,0,.28.77l.16.37L723.1,0H546.85l758.94,709.17-.26-.14c-.74-.6-.93-.66-.76-.36-.33-.11-.24.07.47.66l.26.33L317,0H0V4.68l1305.14,705.4-.3-.07c-.89-.41-1.09-.41-.84-.16-.32,0-.19.13.62.51l.33.24L0,204.94V384.88L1304.8,711.13h-.35c-1-.18-1.18-.14-.87,0-.33.05-.17.16.72.33l.34.14L0,552.45V713.09l1304.56-.91-.33.09c-1.11.06-1.28.16-.85.27-.26.13-.06.19.8.14l.39.05L0,874.78v167.71L1304.78,713.25l-.33.18c-.88.29-1,.42-.69.44-.28.22-.08.23.84-.06l.32,0L370.84,1078H635.36L1305.2,714.25l-.3.29c-.76.48-.87.64-.55.58-.21.29,0,.26.82-.26l.27-.11L801.54,1078H919l386.87-362.89c-.08.13-.16.25-.22.36-.63.69-.69.87-.38.72-.11.3.08.22.7-.44l.25-.18-297,362.43H1083l223.82-362.28c0,.14-.07.27-.11.4-.43.83-.43,1-.16.79,0,.31.13.18.54-.58l.18-.22L1146.45,1078h56.92l104.52-361.92v.43c-.19.9-.14,1.1,0,.81.06.32.18.16.36-.7a1.47,1.47,0,0,0,.1-.22L1256.29,1078h50.76L1309,716.3c0,.15.08.28.12.4.07,1.08.18,1.23.3.8.12.21.18,0,.14-.71,0-.09,0-.2,0-.3L1358,1078h52.83L1310.11,716.12l.25.41c.29.78.43.92.45.62.21.24.23.05,0-.75,0-.08,0-.18,0-.27L1467.5,1078h63.13L1311.18,715.76l.37.35c.49.66.65.76.6.48.29.2.25,0-.27-.73l-.11-.26L1604,1078h89.67L1312.12,715.13l.42.23c.69.56.88.62.73.34.31.1.22-.07-.45-.64l-.21-.25L1810.43,1078H1920v-30.55Z"/></g></g></g></g></svg>