<svg xmlns="http://www.w3.org/2000/svg" width="294" height="294" viewBox="0 0 294 294">
  <g id="tradition" transform="translate(-283 -3055.645)">
    <g id="Ellipse_3" data-name="Ellipse 3" transform="translate(283 3055.645)" fill="#1e2d2f" stroke="#707070" stroke-width="1">
      <circle cx="147" cy="147" r="147" stroke="none"/>
      <circle cx="147" cy="147" r="146.5" fill="none"/>
    </g>
    <g id="handshake" transform="translate(338.011 3028.606)" opacity="0.8">
      <path id="Path_125" data-name="Path 125" d="M276.115,221.28a2.945,2.945,0,0,1-2.439-1.3l-9.031-13.236a2.953,2.953,0,0,1,4.877-3.33l9.031,13.236a2.948,2.948,0,0,1-.774,4.1A2.823,2.823,0,0,1,276.115,221.28Z" transform="translate(-211.398 -77.434)" fill="#f7dba7"/>
      <path id="Path_126" data-name="Path 126" d="M414.432,140.854a2.943,2.943,0,0,1-2.91-2.472L407.3,112.5a2.957,2.957,0,0,1,5.836-.959l4.221,25.883a2.965,2.965,0,0,1-2.439,3.4A2.463,2.463,0,0,1,414.432,140.854Z" transform="translate(-330.457 -0.018)" fill="#f7dba7"/>
      <path id="Path_127" data-name="Path 127" d="M549.792,140.836a1.637,1.637,0,0,1-.4-.034,2.957,2.957,0,0,1-2.523-3.33l3.616-25.883a2.954,2.954,0,1,1,5.853.807l-3.616,25.9A2.938,2.938,0,0,1,549.792,140.836Z" transform="translate(-446.56 0)" fill="#f7dba7"/>
      <path id="Path_128" data-name="Path 128" d="M657.144,207.906a2.984,2.984,0,0,1-1.6-.471,2.944,2.944,0,0,1-.891-4.087L664.881,187.4a2.958,2.958,0,1,1,4.978,3.2L659.633,206.56A2.956,2.956,0,0,1,657.144,207.906Z" transform="translate(-535.85 -64.059)" fill="#f7dba7"/>
      <path id="Path_129" data-name="Path 129" d="M31,400.164a2.823,2.823,0,0,1-.841-.118l-18.063-5.432a2.962,2.962,0,0,1-1.934-3.818L28.222,340.24a2.928,2.928,0,0,1,1.631-1.715,2.981,2.981,0,0,1,2.371.017l17.457,7.82a2.953,2.953,0,0,1,1.732,2.994c-2.439,24.487-17.256,48.42-17.895,49.429A3.021,3.021,0,0,1,31,400.164Zm-14.228-10.31,12.866,3.851c3.38-5.886,13.2-24.286,15.641-42.853l-12.563-5.634Z" transform="translate(0 -190.693)" fill="#f7dba7"/>
      <path id="Path_130" data-name="Path 130" d="M746.206,400.037a2.979,2.979,0,0,1-2.371-1.177C727.37,376.9,722.425,352.34,722.223,351.3a2.953,2.953,0,0,1,1.312-3.061l15.052-9.637a2.958,2.958,0,0,1,4.238,1.144l24.084,47.545a2.893,2.893,0,0,1,.151,2.3,2.991,2.991,0,0,1-1.547,1.715l-18.063,8.426A2.77,2.77,0,0,1,746.206,400.037ZM728.48,352.088c1.446,5.92,6.626,24.37,18.668,41.272l13.085-6.105-21.208-41.911Z" transform="translate(-592.402 -190.566)" fill="#f7dba7"/>
      <path id="Path_131" data-name="Path 131" d="M411.163,422.176a3,3,0,0,1-2.018-.79c-13.656-12.732-36.26-33.552-38.733-35.184-1.413-.925-4.1-.555-5.886-.05-1.514,2.977-5.718,10.091-12.176,11.857-4.49,1.228-8.359.673-10.865-1.547a7.81,7.81,0,0,1-2.455-7.131,14.708,14.708,0,0,1,4.322-8.073c.3-2.472,1.194-7.535,3.616-10.31,3.246-3.717,13.455-9.6,14.6-10.259a2.7,2.7,0,0,1,.639-.269c.454-.135,11.336-3.263,19.425.1a54.257,54.257,0,0,1,10.579,5.718l13.926-1.11a2.974,2.974,0,0,1,3.179,2.708,2.945,2.945,0,0,1-2.708,3.179l-15.052,1.211a3.015,3.015,0,0,1-2.136-.673,44.509,44.509,0,0,0-10.074-5.567c-5.516-2.287-13.505-.4-15.17.017-4.07,2.338-10.848,6.643-12.765,8.83-1.245,1.43-2.085,5.584-2.287,8.09a2.922,2.922,0,0,1-1.127,2.085,9.41,9.41,0,0,0-3.111,5.146,1.954,1.954,0,0,0,.521,1.867c.74.656,2.54,1.06,5.4.286,4.289-1.177,7.955-7.585,8.914-9.755a3,3,0,0,1,1.615-1.564c.757-.3,7.585-2.859,12.345.286,3.347,2.22,29.953,26.909,37.723,34.141l11.016-8.005A2.962,2.962,0,1,1,425.9,412.2l-12.984,9.452A3.271,3.271,0,0,1,411.163,422.176Z" transform="translate(-273.622 -207.894)" fill="#f7dba7"/>
      <path id="Path_132" data-name="Path 132" d="M253.895,403.746a1.032,1.032,0,0,1-.235-.017l-29.8-2.4a2.954,2.954,0,0,1-2.708-3.179,2.924,2.924,0,0,1,3.179-2.708l29.8,2.405a2.956,2.956,0,0,1-.235,5.9Z" transform="translate(-175.638 -238.221)" fill="#f7dba7"/>
      <path id="Path_133" data-name="Path 133" d="M571.825,644.6a14.665,14.665,0,0,1-8.056-2.842c-.067-.05-.118-.1-.185-.151l-26.489-22.738a2.958,2.958,0,1,1,3.851-4.49l26.371,22.637c.555.37,4.423,2.826,6.341.925,1.968-1.951-.387-4.541-.656-4.827a2.95,2.95,0,0,1,4.272-4.07c2.674,2.809,5.029,8.628.538,13.085A8.115,8.115,0,0,1,571.825,644.6Z" transform="translate(-437.597 -419.755)" fill="#f7dba7"/>
      <path id="Path_134" data-name="Path 134" d="M505.121,691.6c-2.186,0-4.793-.841-7.837-3.263-4.154-3.33-26.741-22.94-27.7-23.781a2.956,2.956,0,1,1,3.885-4.457c.235.2,23.445,20.367,27.515,23.63,4,3.2,5.432,1.766,6.29.908,2.237-2.254.067-5.062-.2-5.365a2.952,2.952,0,1,1,4.575-3.734c2.018,2.489,4.591,8.46-.2,13.27A8.9,8.9,0,0,1,505.121,691.6Z" transform="translate(-381.455 -457.775)" fill="#f7dba7"/>
      <path id="Path_135" data-name="Path 135" d="M501.074,789.367a12.317,12.317,0,0,1-7.652-3.027l-12.614-10.478a2.95,2.95,0,1,1,3.767-4.541l12.664,10.528c.639.555,3.767,2.96,6.122.471,1.715-1.816-.69-4.676-.79-4.81a2.957,2.957,0,0,1,4.474-3.868c2.1,2.405,4.945,8.174.639,12.748A8.909,8.909,0,0,1,501.074,789.367Z" transform="translate(-390.745 -550.33)" fill="#f7dba7"/>
      <path id="Path_136" data-name="Path 136" d="M443.5,836.481c-3.734,0-8.493-1.362-14.245-5.685a2.955,2.955,0,0,1,3.549-4.726c10.9,8.174,15.742,2.792,15.927,2.556a2.987,2.987,0,0,1,4.154-.37,2.912,2.912,0,0,1,.437,4.087A13.036,13.036,0,0,1,443.5,836.481Z" transform="translate(-347.774 -595.947)" fill="#f7dba7"/>
      <path id="Path_137" data-name="Path 137" d="M317.252,728.291a9.366,9.366,0,0,1-7.686-14.733l4.272-6.139a9.382,9.382,0,0,1,16.936,3.7,9.271,9.271,0,0,1-1.547,7.013l-4.272,6.139A9.36,9.36,0,0,1,317.252,728.291Zm4.289-18.971a3.469,3.469,0,0,0-2.842,1.48l-4.272,6.139a3.475,3.475,0,0,0,.858,4.827,3.572,3.572,0,0,0,4.827-.858l4.272-6.139a3.464,3.464,0,0,0-2.842-5.449Z" transform="translate(-247.792 -494.4)" fill="#f7dba7"/>
      <path id="Path_138" data-name="Path 138" d="M253.928,701.339a9.106,9.106,0,0,1-7.467-14.312l3.212-4.625a9.109,9.109,0,1,1,14.951,10.411l-3.212,4.625A9.12,9.12,0,0,1,253.928,701.339Zm3.229-16.919a3.184,3.184,0,0,0-2.624,1.362l-3.212,4.625a3.206,3.206,0,0,0,.79,4.457,3.287,3.287,0,0,0,4.457-.79l3.212-4.625a3.2,3.2,0,0,0-2.624-5.029Z" transform="translate(-195.349 -473.688)" fill="#f7dba7"/>
      <path id="Path_139" data-name="Path 139" d="M200.965,676.609a8.245,8.245,0,0,1-6.761-12.95l2.1-3.027a8.228,8.228,0,1,1,13.505,9.4l-2.1,3.027A8.2,8.2,0,0,1,200.965,676.609Zm2.119-13.589a2.3,2.3,0,0,0-1.9.992l-2.1,3.027a2.345,2.345,0,0,0-.387,1.732,2.3,2.3,0,0,0,.959,1.5,2.382,2.382,0,0,0,3.229-.572l2.1-3.027a2.319,2.319,0,0,0-.572-3.229A2.389,2.389,0,0,0,203.084,663.02Z" transform="translate(-152.006 -455.887)" fill="#f7dba7"/>
      <path id="Path_140" data-name="Path 140" d="M382.073,775.711a8.172,8.172,0,0,1-6.71-12.849l3.6-5.163a8.183,8.183,0,0,1,13.421,9.368l-3.582,5.146A8.253,8.253,0,0,1,382.073,775.711Zm3.6-15.591a2.289,2.289,0,0,0-1.867.975l-3.582,5.146a2.268,2.268,0,0,0,.555,3.162,2.334,2.334,0,0,0,3.162-.572l3.582-5.146a2.27,2.27,0,0,0-.572-3.162A2.177,2.177,0,0,0,385.672,760.12Z" transform="translate(-302.706 -536.656)" fill="#f7dba7"/>
      <path id="Path_141" data-name="Path 141" d="M141.116,665.17a2.972,2.972,0,0,1-1.48-.4l-10.444-6.038a2.954,2.954,0,0,1,2.96-5.113l10.444,6.038a2.958,2.958,0,0,1-1.48,5.516Z" transform="translate(-97.926 -452.655)" fill="#f7dba7"/>
    </g>
  </g>
</svg>
